<svg xmlns="http://www.w3.org/2000/svg" viewBox="0 0 283.6 118.5" enable-background="new 0 0 283.6 118.5"><linearGradient id="a" gradientUnits="userSpaceOnUse" x1="-1740.776" y1="31.196" x2="-1750.267" y2="63.145" gradientTransform="matrix(-.992 -.129 -.129 .992 -1687.4 -224.812)"><stop offset="0" stop-color="#9C0C2C"/><stop offset=".025" stop-color="#9E0C2D"/><stop offset=".433" stop-color="#BF0E36"/><stop offset=".772" stop-color="#D4103B"/><stop offset="1" stop-color="#DB103D"/></linearGradient><path fill="url(#a)" d="M42.5 72.2l4.5-22-22.4-23.8z"/><linearGradient id="b" gradientUnits="userSpaceOnUse" x1="-1746.13" y1="47.733" x2="-1721.801" y2="72.196" gradientTransform="matrix(-.992 -.129 -.129 .992 -1687.4 -224.812)"><stop offset="0" stop-color="#9C0C2C"/><stop offset=".025" stop-color="#9E0C2D"/><stop offset=".433" stop-color="#BF0E36"/><stop offset=".772" stop-color="#D4103B"/><stop offset="1" stop-color="#DB103D"/></linearGradient><path fill="url(#b)" d="M22.2 63.7l21.9 12.4-19.5-49.7z"/><linearGradient id="c" gradientUnits="userSpaceOnUse" x1="-1757.739" y1="86.437" x2="-1772.181" y2="108.725" gradientTransform="matrix(-.992 -.129 -.129 .992 -1687.4 -224.812)"><stop offset="0" stop-color="#9C0C2C"/><stop offset="1" stop-color="#DB103D"/></linearGradient><path fill="url(#c)" d="M49.5 79.2l8.5 21-8.7 18.3z"/><linearGradient id="d" gradientUnits="userSpaceOnUse" x1="-1755.803" y1="78.325" x2="-1760.223" y2="97.542" gradientTransform="matrix(-.992 -.129 -.129 .992 -1687.4 -224.812)"><stop offset="0" stop-color="#9C0C2C"/><stop offset=".025" stop-color="#9E0C2D"/><stop offset=".433" stop-color="#BF0E36"/><stop offset=".772" stop-color="#D4103B"/><stop offset="1" stop-color="#DB103D"/></linearGradient><path fill="url(#d)" d="M37.5 80.7l11.9 22.4.1-23.9z"/><linearGradient id="e" gradientUnits="userSpaceOnUse" x1="-1746.171" y1="35.485" x2="-1773.442" y2="1.263" gradientTransform="matrix(-.992 -.129 -.129 .992 -1687.4 -224.812)"><stop offset="0" stop-color="#9C0C2C"/><stop offset=".025" stop-color="#9E0C2D"/><stop offset=".433" stop-color="#BF0E36"/><stop offset=".772" stop-color="#D4103B"/><stop offset="1" stop-color="#DB103D"/></linearGradient><path fill="url(#e)" d="M38.3 26.7l18.4-22-12.7 42.4z"/><linearGradient id="f" gradientUnits="userSpaceOnUse" x1="-1743.521" y1="81.663" x2="-1746.463" y2="91.892" gradientTransform="matrix(-.992 -.129 -.129 .992 -1687.4 -224.812)"><stop offset="0" stop-color="#9C0C2C"/><stop offset=".025" stop-color="#9E0C2D"/><stop offset=".433" stop-color="#BF0E36"/><stop offset=".772" stop-color="#D4103B"/><stop offset="1" stop-color="#DB103D"/></linearGradient><path fill="url(#f)" d="M37.3 80.3l4.6 8.7-20.7-6.2z"/><linearGradient id="g" gradientUnits="userSpaceOnUse" x1="-1743.704" y1="62.434" x2="-1747.238" y2="77.8" gradientTransform="matrix(-.992 -.129 -.129 .992 -1687.4 -224.812)"><stop offset="0" stop-color="#9C0C2C"/><stop offset=".025" stop-color="#9E0C2D"/><stop offset=".433" stop-color="#BF0E36"/><stop offset=".772" stop-color="#D4103B"/><stop offset="1" stop-color="#DB103D"/></linearGradient><path fill="url(#g)" d="M21.2 82.8l28.3-3.6-27.4-15.6z"/><linearGradient id="h" gradientUnits="userSpaceOnUse" x1="-1718.668" y1="58.09" x2="-1710.511" y2="66.515" gradientTransform="matrix(-.992 -.129 -.129 .992 -1687.4 -224.812)"><stop offset="0" stop-color="#9C0C2C"/><stop offset=".025" stop-color="#9E0C2D"/><stop offset=".433" stop-color="#BF0E36"/><stop offset=".772" stop-color="#D4103B"/><stop offset="1" stop-color="#DB103D"/></linearGradient><path fill="url(#h)" d="M8.2 51.9l-8.2 9.4 8.2-1.1z"/><linearGradient id="i" gradientUnits="userSpaceOnUse" x1="-1724.799" y1="60.177" x2="-1729.543" y2="80.806" gradientTransform="matrix(-.992 -.129 -.129 .992 -1687.4 -224.812)"><stop offset="0" stop-color="#9C0C2C"/><stop offset=".025" stop-color="#9E0C2D"/><stop offset=".433" stop-color="#BF0E36"/><stop offset=".772" stop-color="#D4103B"/><stop offset="1" stop-color="#DB103D"/></linearGradient><path fill="url(#i)" d="M22.6 57l-14.5 7.7 13.1 18.1z"/><linearGradient id="j" gradientUnits="userSpaceOnUse" x1="-1723.327" y1="53.766" x2="-1725.684" y2="64.013" gradientTransform="matrix(-.992 -.129 -.129 .992 -1687.4 -224.812)"><stop offset="0" stop-color="#9C0C2C"/><stop offset=".025" stop-color="#9E0C2D"/><stop offset=".433" stop-color="#BF0E36"/><stop offset=".772" stop-color="#D4103B"/><stop offset="1" stop-color="#DB103D"/></linearGradient><path fill="url(#j)" d="M22.6 57l-14.4-5-.1 12.7z"/><linearGradient id="k" gradientUnits="userSpaceOnUse" x1="-1720.256" y1="8.085" x2="-1754.344" y2="31.078" gradientTransform="matrix(-.992 -.129 -.129 .992 -1687.4 -224.812)"><stop offset="0" stop-color="#9C0C2C"/><stop offset=".025" stop-color="#9E0C2D"/><stop offset=".433" stop-color="#BF0E36"/><stop offset=".772" stop-color="#D4103B"/><stop offset="1" stop-color="#DB103D"/></linearGradient><path fill="url(#k)" d="M30.7 0l13.3 47.1-19.4-20.7z"/><path fill="#fff" d="M119 82.1h-7.1v-27.6c0-2.9-.9-4.4-2.7-4.4-2 0-3.9 1.3-5.8 3.8v28.2h-7.1v-27.6c0-2.9-.9-4.4-2.7-4.4-1.9 0-3.8 1.3-5.7 3.8v28.2h-7.1v-37.8h7.1v4.9c3.1-3.5 6.2-5.2 9.3-5.2 3.3 0 5.3 1.7 5.9 5.2 3.2-3.5 6.4-5.2 9.6-5.2 4.2 0 6.2 2.9 6.2 8.7v29.4zM133.7 39.8h-7.1v-7.4h7.1v7.4zm0 42.3h-7.1v-37.8h7.1v37.8zM164 82.1h-7.1v-27.6c0-2.9-.9-4.4-2.7-4.4-1.9 0-3.8 1.3-5.7 3.8v28.2h-7.1v-37.8h7.1v4.9c3.1-3.5 6.2-5.2 9.3-5.2 4.1 0 6.2 2.9 6.2 8.7v29.4zM194.5 82.1h-7.1v-3.7c-2.9 2.8-5.7 4.3-8.4 4.3-3.3 0-5.5-1.8-6.6-5.4-.7-2.1-1-5.2-1-9.5v-9c0-4.3.3-7.4.9-9.4 1.1-3.6 3.3-5.4 6.7-5.4 2.6 0 5.4 1.4 8.4 4.2v-15.7h7.1v49.6zm-7-7.7v-22.4c-1.9-1.3-3.5-1.9-4.9-1.9-1.8 0-3 1-3.6 3-.3.9-.4 2.6-.4 5.1v10.5c0 2.3.2 3.9.5 4.8.6 1.8 1.7 2.7 3.5 2.7 1.4.1 3-.5 4.9-1.8z"/><path fill="#DE0639" d="M215 82.6h-4.7c-3.5 0-6.1-.9-7.7-2.8-1.2-1.4-1.7-4.1-1.7-8.3v-39h7.1v11.8h6.5v6.3h-6.5v20.1c0 3.6 1.5 5.4 4.4 5.4h2.7v6.5zM256.4 44.3l-7.9 37.7h-6.8l-4.9-23.2-4.7 23.2h-6.7l-8.1-37.7h7.2l4.6 23.5 4.6-23.5h6.5l4.9 23.5 4.2-23.5h7.1zM280.5 46.6c-2.1-2-4.9-3-8.5-3-3.7 0-6.5 1-8.5 3.1s-3 5.6-3 10.7v11.7c0 5.3 1 8.9 3 10.7 2.2 2 5 3 8.6 3 3.7 0 6.6-1 8.6-3s3-5.6 3-10.7v-11.7c-.1-5.2-1.1-8.8-3.2-10.8zm-4 22.9c0 4.6-1.5 6.9-4.6 6.9-3 0-4.5-2.3-4.5-6.9v-12.6c0-4.6 1.5-6.9 4.5-6.9s4.6 2.3 4.6 6.9v12.6z"/></svg>