<svg width="283" height="123" xmlns="http://www.w3.org/2000/svg" xmlns:xlink="http://www.w3.org/1999/xlink"><defs><path id="a" d="M0 0.0267391304L282.945457 0.0267391304 282.945457 122.946522 0 122.946522z"/></defs><g fill="none" fill-rule="evenodd"><path d="M136.23 81.491h-6.296V56.906c0-2.61-.812-3.917-2.436-3.917-1.76 0-3.477 1.126-5.146 3.377v25.125h-6.295V56.906c0-2.61-.813-3.917-2.438-3.917-1.715 0-3.41 1.126-5.079 3.377v25.125h-6.363V47.844h6.363v4.333c2.754-3.114 5.53-4.671 8.329-4.671 2.933 0 4.692 1.557 5.28 4.671 2.889-3.114 5.73-4.671 8.53-4.671 3.7 0 5.552 2.59 5.552 7.77V81.49m6.78 0h6.364V47.844h-6.364v33.647zm0-37.63h6.364v-6.568h-6.364v6.567zm33.318 37.63h-6.295V56.906c0-2.61-.813-3.917-2.438-3.917-1.715 0-3.408 1.126-5.077 3.377v25.125h-6.364V47.844h6.364v4.333c2.752-3.114 5.528-4.671 8.327-4.671 3.655 0 5.483 2.59 5.483 7.77V81.49m20.93-6.828v-19.99c-1.67-1.123-3.137-1.684-4.4-1.684-1.625 0-2.687.898-3.182 2.693-.227.808-.339 2.334-.339 4.576v9.356c0 2.02.135 3.455.406 4.308.496 1.617 1.534 2.424 3.115 2.424 1.308 0 2.775-.561 4.4-1.683zm6.296 6.828h-6.295v-3.316c-2.618 2.527-5.102 3.79-7.449 3.79-2.934 0-4.897-1.598-5.889-4.797-.588-1.847-.88-4.662-.88-8.447v-8.038c0-3.83.27-6.624.813-8.38.992-3.198 2.978-4.797 5.956-4.797 2.347 0 4.831 1.241 7.449 3.723V37.293h6.295v44.198z" fill="#FFFFFE"/><path d="M221.803 81.965h-4.197c-3.16 0-5.463-.838-6.905-2.511-1.04-1.222-1.557-3.686-1.557-7.396V37.293h6.363v10.551h5.754v5.62h-5.754v17.925c0 3.215 1.308 4.822 3.927 4.822h2.369v5.754" fill="#D02143"/><path fill="#D02143" d="M258.71 47.8443261L251.670478 81.4910652 245.643478 81.4910652 241.311739 60.8431087 237.113696 81.4910652 231.155326 81.4910652 223.911696 47.8443261 230.343348 47.8443261 234.405913 68.830087 238.535326 47.8443261 244.289587 47.8443261 248.623109 68.830087 252.346087 47.8443261 258.71 47.8443261"/><path d="M276.65 70.253v-11.17c0-4.106-1.354-6.16-4.061-6.16-2.665 0-3.995 2.054-3.995 6.16v11.17c0 4.109 1.33 6.16 3.995 6.16 2.707 0 4.061-2.051 4.061-6.16zm6.295-.34c0 4.562-.902 7.744-2.707 9.547-1.804 1.806-4.355 2.708-7.65 2.708-3.16 0-5.711-.902-7.65-2.708-1.76-1.624-2.64-4.806-2.64-9.546V59.488c0-4.557.89-7.75 2.674-9.58 1.781-1.827 4.321-2.741 7.617-2.741 3.204 0 5.73.904 7.58 2.708 1.852 1.806 2.776 5.01 2.776 9.613v10.426z" fill="#D02143"/><mask id="b" fill="#fff"><use xlink:href="#a"/></mask><path d="M276.65 70.253c0 4.109-1.354 6.16-4.061 6.16-2.665 0-3.995-2.051-3.995-6.16v-11.17c0-4.106 1.33-6.16 3.995-6.16 2.707 0 4.061 2.054 4.061 6.16v11.17zm3.52-20.378c-1.851-1.804-4.377-2.708-7.582-2.708-3.295 0-5.835.914-7.616 2.742-1.783 1.829-2.674 5.022-2.674 9.58v10.425c0 4.74.88 7.922 2.64 9.546 1.939 1.806 4.49 2.708 7.65 2.708 3.295 0 5.846-.902 7.65-2.708 1.805-1.803 2.707-4.985 2.707-9.546V59.488c0-4.603-.924-7.807-2.775-9.613zm-218.423.357l-6.828-13.95 19.99-11.435-13.162 25.385zm8.74 28.654l-19.16 24.374 8.097-45.198 11.063 20.824zM42.064 51.39l12.424 3.56-3.835 20.027-8.589-23.587zM22.06 46.03l13.688 3.894 9.135 25.088L22.06 46.03zm-5.115 2.29l9.891 12.53-17.27-.846 7.379-11.684zm22.837-29.795L55.363 49.55l-18.576-5.324 2.995-25.702zm48.442-7.555L52.446 31.436 36.47.026l-5.016 43.028-14.926-4.247L0 64.975l31.281 1.531L48.22 88.044 42.72 123l34.224-43.54-12.264-23.084L88.224 10.97z" fill="#D02143" mask="url(#b)"/></g></svg>